<svg xmlns="http://www.w3.org/2000/svg" width="1400" height="800" viewBox="0 0 1400 800">
<defs><marker id="arrow" viewBox="0 0 10 10" refX="10" refY="5" markerWidth="7" markerHeight="7" orient="auto"><path d="M0,0 L10,5 L0,10 z" fill="#666"/></marker></defs>
<rect x="0" y="0" width="100%" height="100%" fill="white"/>
<text x="50%" y="28" text-anchor="middle" font-family="Inter,Arial" font-size="22" fill="#111">NHL-Beyond-27 — Data Architecture</text>
<g><rect x="60" y="60" width="310" height="90" rx="12" ry="12" fill="#f0f0f0" stroke="#444" /><text x="215.0" y="90" text-anchor="middle" font-family="Inter,Arial" font-size="18" font-weight="600" fill="#0b0b0b">S3 raw dumps</text><text x="215.0" y="112" text-anchor="middle" font-family="Inter,Arial" font-size="13" font-weight="500" fill="#1a1a1a"><tspan x="215.0" dy="0">(EH export, HR scrapes)</tspan></text></g>
<g><rect x="420" y="60" width="310" height="90" rx="12" ry="12" fill="#f0f0f0" stroke="#444" /><text x="575.0" y="90" text-anchor="middle" font-family="Inter,Arial" font-size="18" font-weight="600" fill="#0b0b0b">VS Code staging</text><text x="575.0" y="112" text-anchor="middle" font-family="Inter,Arial" font-size="13" font-weight="500" fill="#1a1a1a"><tspan x="575.0" dy="0">src/data/raw/</tspan></text></g>
<g><rect x="780" y="60" width="310" height="90" rx="12" ry="12" fill="#f0f0f0" stroke="#444" /><text x="935.0" y="90" text-anchor="middle" font-family="Inter,Arial" font-size="18" font-weight="600" fill="#0b0b0b">Python utils</text><text x="935.0" y="112" text-anchor="middle" font-family="Inter,Arial" font-size="13" font-weight="500" fill="#1a1a1a"><tspan x="935.0" dy="0">s3_utils • db_utils • log_utils •</tspan><tspan x="935.0" dy="15">view_utils</tspan></text></g>
<g><rect x="60" y="220" width="310" height="90" rx="12" ry="12" fill="#f0f0f0" stroke="#444" /><text x="215.0" y="250" text-anchor="middle" font-family="Inter,Arial" font-size="18" font-weight="600" fill="#0b0b0b">ingest_peak_season.py</text><text x="215.0" y="272" text-anchor="middle" font-family="Inter,Arial" font-size="13" font-weight="500" fill="#1a1a1a"><tspan x="215.0" dy="0">Load CSV → base tables (Postgres)</tspan></text></g>
<g><rect x="420" y="220" width="310" height="90" rx="12" ry="12" fill="#f0f0f0" stroke="#444" /><text x="575.0" y="250" text-anchor="middle" font-family="Inter,Arial" font-size="18" font-weight="600" fill="#0b0b0b">SQL VIEW</text><text x="575.0" y="272" text-anchor="middle" font-family="Inter,Arial" font-size="13" font-weight="500" fill="#1a1a1a"><tspan x="575.0" dy="0">player_peak_season_one_row</tspan></text></g>
<g><rect x="780" y="220" width="310" height="90" rx="12" ry="12" fill="#f0f0f0" stroke="#444" /><text x="935.0" y="250" text-anchor="middle" font-family="Inter,Arial" font-size="18" font-weight="600" fill="#0b0b0b">build_player_streaks_and_aligned.py</text><text x="935.0" y="272" text-anchor="middle" font-family="Inter,Arial" font-size="13" font-weight="500" fill="#1a1a1a"><tspan x="935.0" dy="0">Five-year panels • rel_age −2…+2</tspan></text></g>
<g><rect x="60" y="380" width="310" height="90" rx="12" ry="12" fill="#f0f0f0" stroke="#444" /><text x="215.0" y="410" text-anchor="middle" font-family="Inter,Arial" font-size="18" font-weight="600" fill="#0b0b0b">build_player_five_year_aligned_z.py</text><text x="215.0" y="432" text-anchor="middle" font-family="Inter,Arial" font-size="13" font-weight="500" fill="#1a1a1a"><tspan x="215.0" dy="0">Per-player z-scores • spicy •</tspan><tspan x="215.0" dy="15">deltas</tspan></text></g>
<g><rect x="420" y="380" width="310" height="90" rx="12" ry="12" fill="#f0f0f0" stroke="#444" /><text x="575.0" y="410" text-anchor="middle" font-family="Inter,Arial" font-size="18" font-weight="600" fill="#0b0b0b">CSV snapshots</text><text x="575.0" y="432" text-anchor="middle" font-family="Inter,Arial" font-size="13" font-weight="500" fill="#1a1a1a"><tspan x="575.0" dy="0">hockeyref_final.csv •</tspan><tspan x="575.0" dy="15">eh_skater_seasons_2014_2025.csv •</tspan><tspan x="575.0" dy="15">player_five_year_panels.csv</tspan></text></g>
<g><rect x="780" y="380" width="310" height="90" rx="12" ry="12" fill="#f0f0f0" stroke="#444" /><text x="935.0" y="410" text-anchor="middle" font-family="Inter,Arial" font-size="18" font-weight="600" fill="#0b0b0b">Analysis notebooks</text><text x="935.0" y="432" text-anchor="middle" font-family="Inter,Arial" font-size="13" font-weight="500" fill="#1a1a1a"><tspan x="935.0" dy="0">figures &amp; regression (file-first)</tspan></text></g>
<line x1="370" y1="105.0" x2="420" y2="105.0" stroke="#666" stroke-width="2" marker-end="url(#arrow)"/>
<line x1="730" y1="105.0" x2="780" y2="105.0" stroke="#666" stroke-width="2" marker-end="url(#arrow)"/>
<line x1="1140" y1="105.0" x2="215.0" y2="220" stroke="#666" stroke-width="2" marker-end="url(#arrow)"/>
<line x1="370" y1="265.0" x2="420" y2="265.0" stroke="#666" stroke-width="2" marker-end="url(#arrow)"/>
<line x1="730" y1="265.0" x2="780" y2="265.0" stroke="#666" stroke-width="2" marker-end="url(#arrow)"/>
<line x1="1140" y1="265.0" x2="215.0" y2="380" stroke="#666" stroke-width="2" marker-end="url(#arrow)"/>
<line x1="370" y1="425.0" x2="420" y2="425.0" stroke="#666" stroke-width="2" marker-end="url(#arrow)"/>
<line x1="730" y1="425.0" x2="780" y2="425.0" stroke="#666" stroke-width="2" marker-end="url(#arrow)"/>
</svg>